<svg width="131" height="40" viewBox="0 0 131 40" fill="none" xmlns="http://www.w3.org/2000/svg">
<path d="M80.4643 14.4286H86.8928L88.75 15H89.0357L89.1786 14.4286H93.6071L94.8928 14.7143L96.3214 15.5714L97.1786 16.8571L97.4643 18V27.1428H94.4643L94.3214 18.2857L94.1786 17.7143L90.4643 17.5714L90.6071 17.8571V27.1428L88.4643 27.2857L87.6071 27.1428L87.4643 18.7143L87.3214 17.5714H82.1786L82.3214 27L81.75 27.2857H79.6071L79.1786 27.1428V15.5714L79.75 14.7143L80.4643 14.4286Z" fill="#F0877C"/>
<path d="M127.179 9H130.036L130.179 9.14286V23.5714L129.893 24.7143L129.321 25.5714L128.607 26.2857L128.036 26.7143L126.321 27.1429L122.179 27.2857L119.464 27.1429L117.893 26.5714L117.036 25.8571L116.464 25L116.036 23.7143V18L116.607 16.4286L117.464 15.4286L118.893 14.5714L119.75 14.4286H125.75L125.893 14.5714V17.4286L124.179 17.5714H119.321L119.179 22.2857L119.321 23.7143L119.607 24H126.464L126.893 23.5714L127.036 23L127.179 9Z" fill="#F0877C"/>
<path d="M102.607 14.4286H109.607L111.036 14.7143L112.179 15.4286L113.179 16.7143L113.464 17.5714L113.607 18.7143V23L113.321 24.4286L112.75 25.5714L111.75 26.5714L109.893 27.1428L106.893 27.2857H105.179L102.893 27.1428L101.607 26.7143L100.321 25.5714L99.75 24.4286L99.6071 24V22L100.179 20.5714L101.036 19.5714L102.464 18.8571L103.893 18.7143H109.036L109.321 18.8571V21.4286L109.036 21.7143L102.75 21.8571L102.464 23.1428L102.893 24L103.321 24.1428H109.893L110.321 23.8571L110.464 23.4286V18.5714L110.179 17.5714L109.036 17.4286H102.893L102.607 17.2857V14.4286Z" fill="#F0877C"/>
<path d="M66.3214 14.4286H72.4643L73.8928 14.7143L74.75 15.1428L75.4643 15.7143L76.3214 17.1428L76.4643 17.7143V24L76.0357 25.1428L74.8928 26.4286L73.6071 27L72.75 27.1428L68.4643 27.2857L66.0357 27.1428L64.6071 26.7143L63.4643 25.8571L62.75 24.8571L62.4643 23.8571V17.4286L63.1785 16.1428L64.4643 15L65.4643 14.5714L66.3214 14.4286ZM65.8928 17.5714L65.6071 17.7143L65.4643 18.1428L65.3214 22.2857L65.6071 23.7143L66.0357 24.1428H72.8928L73.3214 23.8571L73.4643 23.2857V18.4286L73.1786 17.5714H65.8928Z" fill="#F0877C"/>
<path d="M47.1786 14.4286H54.75L56.6071 14.8571L58.0357 15.7143L59.1786 17L59.75 18.4286L59.8929 19.2857L60.0357 25.7143V27.1428L59.75 27.2857H57.1786L56.8929 27.1428L56.75 19.4286L56.1786 18.2857L55.3214 17.7143L48.8929 17.5714V27.1428L48.6071 27.2857H46.0357L45.75 27.1428V15.5714L46.3214 14.7143L47.1786 14.4286Z" fill="#F0877C"/>
<path d="M2.5173 0H33.2684L33.9753 0.322581L34.4466 0.967742L34.6823 1.93548L34.8001 12.2581L35.0357 24.3011V28.0645L34.6823 28.7097L33.7397 29.6774L31.7367 31.0753L29.616 32.4731L27.4952 33.9785L25.8457 35.0538L23.3715 36.7742L21.1329 38.2796L19.13 39.5699L18.423 39.8925L17.7161 40L16.5379 39.5699L15.0063 38.6022L11.236 36.0215L8.99742 34.5161L6.5232 32.7957L4.28461 31.2903L2.28166 29.8925L1.22128 29.0323L0.75 28.2796V19.4624L0.86782 3.11828L1.10346 1.39785L1.45692 0.537634L2.04602 0.107527L2.5173 0ZM10.2934 0.860215L5.58063 0.967742L3.57769 1.29032L2.63513 2.04301L2.28166 2.7957L2.04602 4.51613L1.9282 17.6344L5.81627 18.2796L7.1123 18.6022H7.46576V11.5054L6.99448 11.6129L6.5232 12.1505L5.58063 12.9032L4.52025 13.871L4.16679 14.086H3.69551L3.57769 13.3333L7.46576 9.78495V7.74194L5.81627 9.03226L5.22717 9.56989L4.16679 10.4301L3.69551 10.5376L3.57769 10.3226V9.67742L7.46576 6.12903V4.08602L6.99448 4.30108V4.51613L6.5232 4.73118L4.75589 6.34409L3.81333 6.88172L3.45987 6.77419L3.57769 6.02151L7.58358 2.36559H8.40832L9.11524 2.7957L10.2934 3.76344L11.8251 5.16129L12.532 6.12903L12.4142 6.55914L12.0608 6.66667L11.3538 6.23656L9.93999 5.05376L8.8796 4.08602H8.64396V5.91398L8.99742 6.45161L11.0004 8.17204L12.532 9.56989V10.3226L12.1786 10.4301L11.236 9.78495L9.70434 8.49462L8.8796 7.74194H8.64396V9.67742L12.7677 13.4409L12.6499 13.871L12.4142 14.086L11.8251 13.9785L10.4113 12.7957L8.8796 11.3978H8.76178L8.64396 12.6882V18.7097L8.8796 19.2473L11.3538 20.4301L13.3568 21.7204L14.7706 22.9032L15.831 23.871L16.0666 23.7634V18.8172L15.4775 19.0323L14.6528 19.7849L14.0637 20.1075H13.7102L13.5924 19.3548L13.7102 19.0323L14.1815 18.8172L16.1845 16.9892V16.2366L15.5954 16.4516L14.1815 17.5269H13.7102L13.5924 16.8817L14.4172 16.0215L16.1845 14.4086L16.7736 14.3011L17.7161 14.9462L19.4834 16.5591L19.7191 16.8817V17.5269L19.0121 17.4194L17.8339 16.4516L17.127 15.914V16.8817L19.2478 18.8172L19.7191 19.3548V20.1075L19.0121 20L17.5983 18.8172L17.127 18.6022V23.2258L17.7161 23.0108L18.8943 22.2581L19.6013 21.2903L20.6616 19.6774L22.0755 17.4194L23.018 16.0215L24.5497 13.6559L25.8457 11.6129L25.6101 11.0753L24.5497 9.56989L24.6675 9.03226L24.9032 8.70968H25.1388L26.317 10.4301L26.7883 10.2151L27.7309 8.8172H28.0843L28.32 9.13979L28.2021 9.78495L27.2596 11.1828L27.1418 11.6129L27.8487 12.7957L29.7338 15.5914L31.2655 17.957L32.208 19.3548L33.3862 21.0753L33.7397 21.2903V9.24731L33.6219 4.83871L33.504 3.11828L33.1506 2.15054L32.6793 1.6129L31.7367 1.1828L29.8516 0.967742L26.9061 0.860215H10.2934ZM26.317 12.5806L24.9032 14.9462L23.018 17.8495L21.1329 20.8602L20.7795 21.3978V21.6129L21.722 21.5054L23.2537 21.0753L23.725 20.5376L25.3744 17.957L26.317 16.5591V16.3441L26.6705 16.5591L27.3774 17.7419L28.7912 19.7849L29.616 20.8602L30.5585 21.1828L31.5011 21.3978H32.0902L31.8546 20.7527L29.9694 17.7419L28.4378 15.3763L26.7883 12.9032L26.5527 12.5806H26.317ZM26.4348 17.7419L25.9635 18.2796L24.9032 20.1075L24.5497 20.6452V20.8602L28.4378 20.7527L28.2021 20.2151L26.6705 17.8495L26.4348 17.7419ZM2.04602 18.8172L1.9282 19.0323V21.1828L2.87077 21.5054L5.22717 22.2581L8.17268 23.5484L10.0578 24.6237L11.9429 26.0215L12.7677 26.5591L14.8884 24.6237L13.7102 23.5484L12.7677 22.7957L11.236 21.7204L9.4687 20.7527L7.23012 19.8925L4.75589 19.2473L2.04602 18.8172ZM26.4348 21.9355L23.8428 22.1505L21.3686 22.6882L19.13 23.5484L17.2448 24.5161L15.3597 25.8065L13.8281 27.0968L12.7677 28.2796L11.5895 29.8925L10.6469 31.5054L9.70434 33.5484L9.93999 33.9785L11.8251 35.2688L12.0608 35.0538L12.4142 33.7634L13.1211 32.1505L14.1815 30.4301L15.4775 28.9247L16.4201 27.957L18.0696 26.7742L20.0725 25.6989L22.0755 24.9462L23.9606 24.5161L25.4923 24.3011H28.32L30.3229 24.6237L32.3258 25.1613L33.8575 25.6989V23.4409L33.504 23.1183L31.3833 22.4731L28.9091 22.043L27.613 21.9355H26.4348ZM1.81038 22.2581V25.2688L2.75295 25.6989L5.22717 26.7742L6.64102 27.6344L7.93704 28.6022L9.11524 29.5699L9.93999 30.2151L10.6469 29.2473L11.8251 27.5269L11.236 26.8817L9.58652 25.6989L7.81922 24.6237L5.81627 23.6559L3.34205 22.7957L1.81038 22.2581ZM25.3744 25.2688L23.3715 25.5914L21.4864 26.129L19.6013 26.9892L17.9518 28.0645L16.7736 29.0323L15.7132 30.1075L14.6528 31.5054L13.5924 33.5484L13.0033 35.1613L12.8855 35.914L13.9459 36.6667L15.1241 37.4194L15.4775 37.5269L15.9488 35.3763L16.6557 33.6559L17.7161 32.043L19.0121 30.6452L20.6616 29.4624L22.5468 28.6022L24.4319 28.0645L26.4348 27.8495L28.5556 27.957L30.7942 28.4946L32.208 29.0323L32.6793 29.1398L33.2684 28.6022L33.7397 27.957L33.8575 26.9892L32.9149 26.4516L31.3833 25.914L29.0269 25.3763L28.0843 25.2688H25.3744ZM1.81038 26.4516V27.5269L2.16384 28.3871L3.22423 29.3548L5.10935 30.6452L7.34794 32.1505L8.40832 32.9032H8.76178L9.23306 31.828L9.11524 31.2903L8.2905 30.3226L6.75884 29.0323L5.10935 27.957L2.39948 26.6667L1.81038 26.4516ZM25.3744 28.9247L23.1359 29.4624L21.4864 30.2151L19.9547 31.2903L19.0121 32.1505L17.8339 33.7634L17.127 35.2688L16.6557 37.0968V38.0645L17.0092 38.3871L17.2448 38.4946H18.5409L19.7191 37.957L20.1904 37.4194L20.5438 35.914L21.1329 34.6237L22.0755 33.4409L23.018 32.6882L24.4319 32.043L25.9635 31.7204H28.9091L30.912 30.4301L31.3833 30L31.2655 29.6774L28.7912 29.0323L27.9665 28.9247H25.3744ZM26.7883 32.5806L25.3744 32.7957L24.1962 33.2258L23.018 34.086L22.1933 35.1613L21.6042 36.3441V36.5591L22.1933 36.4516L23.6071 35.3763L25.2566 34.3011L27.3774 32.9032V32.5806H26.7883Z" fill="#F0877C"/>
<path d="M17.3627 2.90323H18.7765L19.9547 3.22581L20.8973 3.9785L21.3685 4.73119L21.4864 5.16129V6.02151L21.2507 6.7742L20.7794 7.31183L20.1903 7.63441L19.7191 7.74194H18.6587L17.8339 7.41936L17.127 6.7742L16.8914 6.23656V5.26882L17.7161 4.62366H18.6587L19.2478 4.94624L19.6012 5.48387L19.4834 6.02151L18.8943 5.91398L18.3052 5.16129H17.7161V6.12904L18.0696 6.66667L18.6587 6.98925H19.7191L20.3082 6.66667L20.6616 5.69893L20.426 4.62366L19.8369 3.9785L19.0121 3.54839L17.8339 3.44086L16.8914 3.76344L16.3023 4.30108L15.831 5.05377V6.66667L16.4201 7.63441L17.2448 8.27957L17.9518 8.60215L18.423 8.70968H20.1903L21.3685 8.17205L22.0755 7.63441H22.4289V8.17205L21.4864 8.92473L20.8973 9.24731L19.4834 9.46237L17.8339 9.35484L16.6557 8.81721L16.0666 8.27957L15.2419 7.31183L14.8884 6.12904L15.0062 4.94624L15.5953 3.9785L16.6557 3.11828L17.3627 2.90323Z" fill="#F0877C"/>
</svg>
