<svg width="35" height="40" viewBox="0 0 35 40" fill="none" xmlns="http://www.w3.org/2000/svg">
<path d="M1.7673 0H32.5184L33.2253 0.322581L33.6966 0.967742L33.9323 1.93548L34.0501 12.2581L34.2857 24.3011V28.0645L33.9323 28.7097L32.9897 29.6774L30.9867 31.0753L28.866 32.4731L26.7452 33.9785L25.0957 35.0538L22.6215 36.7742L20.3829 38.2796L18.38 39.5699L17.673 39.8925L16.9661 40L15.7879 39.5699L14.2563 38.6022L10.486 36.0215L8.24742 34.5161L5.7732 32.7957L3.53461 31.2903L1.53166 29.8925L0.471281 29.0323L0 28.2796V19.4624L0.11782 3.11828L0.353461 1.39785L0.706922 0.537634L1.29602 0.107527L1.7673 0ZM9.54345 0.860215L4.83063 0.967742L2.82769 1.29032L1.88513 2.04301L1.53166 2.7957L1.29602 4.51613L1.1782 17.6344L5.06627 18.2796L6.3623 18.6022H6.71576V11.5054L6.24448 11.6129L5.7732 12.1505L4.83063 12.9032L3.77025 13.871L3.41679 14.086H2.94551L2.82769 13.3333L6.71576 9.78495V7.74194L5.06627 9.03226L4.47717 9.56989L3.41679 10.4301L2.94551 10.5376L2.82769 10.3226V9.67742L6.71576 6.12903V4.08602L6.24448 4.30108V4.51613L5.7732 4.73118L4.00589 6.34409L3.06333 6.88172L2.70987 6.77419L2.82769 6.02151L6.83358 2.36559H7.65832L8.36524 2.7957L9.54345 3.76344L11.0751 5.16129L11.782 6.12903L11.6642 6.55914L11.3108 6.66667L10.6038 6.23656L9.18999 5.05376L8.1296 4.08602H7.89396V5.91398L8.24742 6.45161L10.2504 8.17204L11.782 9.56989V10.3226L11.4286 10.4301L10.486 9.78495L8.95434 8.49462L8.1296 7.74194H7.89396V9.67742L12.0177 13.4409L11.8999 13.871L11.6642 14.086L11.0751 13.9785L9.66127 12.7957L8.1296 11.3978H8.01178L7.89396 12.6882V18.7097L8.1296 19.2473L10.6038 20.4301L12.6068 21.7204L14.0206 22.9032L15.081 23.871L15.3166 23.7634V18.8172L14.7275 19.0323L13.9028 19.7849L13.3137 20.1075H12.9602L12.8424 19.3548L12.9602 19.0323L13.4315 18.8172L15.4345 16.9892V16.2366L14.8454 16.4516L13.4315 17.5269H12.9602L12.8424 16.8817L13.6672 16.0215L15.4345 14.4086L16.0236 14.3011L16.9661 14.9462L18.7334 16.5591L18.9691 16.8817V17.5269L18.2621 17.4194L17.0839 16.4516L16.377 15.914V16.8817L18.4978 18.8172L18.9691 19.3548V20.1075L18.2621 20L16.8483 18.8172L16.377 18.6022V23.2258L16.9661 23.0108L18.1443 22.2581L18.8513 21.2903L19.9116 19.6774L21.3255 17.4194L22.268 16.0215L23.7997 13.6559L25.0957 11.6129L24.8601 11.0753L23.7997 9.56989L23.9175 9.03226L24.1532 8.70968H24.3888L25.567 10.4301L26.0383 10.2151L26.9809 8.8172H27.3343L27.57 9.13979L27.4521 9.78495L26.5096 11.1828L26.3918 11.6129L27.0987 12.7957L28.9838 15.5914L30.5155 17.957L31.458 19.3548L32.6362 21.0753L32.9897 21.2903V9.24731L32.8719 4.83871L32.754 3.11828L32.4006 2.15054L31.9293 1.6129L30.9867 1.1828L29.1016 0.967742L26.1561 0.860215H9.54345ZM25.567 12.5806L24.1532 14.9462L22.268 17.8495L20.3829 20.8602L20.0295 21.3978V21.6129L20.972 21.5054L22.5037 21.0753L22.975 20.5376L24.6244 17.957L25.567 16.5591V16.3441L25.9205 16.5591L26.6274 17.7419L28.0412 19.7849L28.866 20.8602L29.8085 21.1828L30.7511 21.3978H31.3402L31.1046 20.7527L29.2194 17.7419L27.6878 15.3763L26.0383 12.9032L25.8027 12.5806H25.567ZM25.6848 17.7419L25.2135 18.2796L24.1532 20.1075L23.7997 20.6452V20.8602L27.6878 20.7527L27.4521 20.2151L25.9205 17.8495L25.6848 17.7419ZM1.29602 18.8172L1.1782 19.0323V21.1828L2.12077 21.5054L4.47717 22.2581L7.42268 23.5484L9.30781 24.6237L11.1929 26.0215L12.0177 26.5591L14.1384 24.6237L12.9602 23.5484L12.0177 22.7957L10.486 21.7204L8.7187 20.7527L6.48012 19.8925L4.00589 19.2473L1.29602 18.8172ZM25.6848 21.9355L23.0928 22.1505L20.6186 22.6882L18.38 23.5484L16.4948 24.5161L14.6097 25.8065L13.0781 27.0968L12.0177 28.2796L10.8395 29.8925L9.89691 31.5054L8.95434 33.5484L9.18999 33.9785L11.0751 35.2688L11.3108 35.0538L11.6642 33.7634L12.3711 32.1505L13.4315 30.4301L14.7275 28.9247L15.6701 27.957L17.3196 26.7742L19.3225 25.6989L21.3255 24.9462L23.2106 24.5161L24.7423 24.3011H27.57L29.5729 24.6237L31.5758 25.1613L33.1075 25.6989V23.4409L32.754 23.1183L30.6333 22.4731L28.1591 22.043L26.863 21.9355H25.6848ZM1.06038 22.2581V25.2688L2.00295 25.6989L4.47717 26.7742L5.89102 27.6344L7.18704 28.6022L8.36524 29.5699L9.18999 30.2151L9.89691 29.2473L11.0751 27.5269L10.486 26.8817L8.83652 25.6989L7.06922 24.6237L5.06627 23.6559L2.59205 22.7957L1.06038 22.2581ZM24.6244 25.2688L22.6215 25.5914L20.7364 26.129L18.8513 26.9892L17.2018 28.0645L16.0236 29.0323L14.9632 30.1075L13.9028 31.5054L12.8424 33.5484L12.2533 35.1613L12.1355 35.914L13.1959 36.6667L14.3741 37.4194L14.7275 37.5269L15.1988 35.3763L15.9057 33.6559L16.9661 32.043L18.2621 30.6452L19.9116 29.4624L21.7968 28.6022L23.6819 28.0645L25.6848 27.8495L27.8056 27.957L30.0442 28.4946L31.458 29.0323L31.9293 29.1398L32.5184 28.6022L32.9897 27.957L33.1075 26.9892L32.1649 26.4516L30.6333 25.914L28.2769 25.3763L27.3343 25.2688H24.6244ZM1.06038 26.4516V27.5269L1.41384 28.3871L2.47423 29.3548L4.35935 30.6452L6.59794 32.1505L7.65832 32.9032H8.01178L8.48306 31.828L8.36524 31.2903L7.5405 30.3226L6.00884 29.0323L4.35935 27.957L1.64948 26.6667L1.06038 26.4516ZM24.6244 28.9247L22.3859 29.4624L20.7364 30.2151L19.2047 31.2903L18.2621 32.1505L17.0839 33.7634L16.377 35.2688L15.9057 37.0968V38.0645L16.2592 38.3871L16.4948 38.4946H17.7909L18.9691 37.957L19.4404 37.4194L19.7938 35.914L20.3829 34.6237L21.3255 33.4409L22.268 32.6882L23.6819 32.043L25.2135 31.7204H28.1591L30.162 30.4301L30.6333 30L30.5155 29.6774L28.0412 29.0323L27.2165 28.9247H24.6244ZM26.0383 32.5806L24.6244 32.7957L23.4462 33.2258L22.268 34.086L21.4433 35.1613L20.8542 36.3441V36.5591L21.4433 36.4516L22.8571 35.3763L24.5066 34.3011L26.6274 32.9032V32.5806H26.0383Z" fill="#F0877C"/>
<path d="M15.9704 2.90323H17.3296L18.4622 3.22581L19.3683 3.9785L19.8214 4.73119L19.9347 5.16129V6.02151L19.7081 6.7742L19.2551 7.31183L18.6887 7.63441L18.2357 7.74194H17.2163L16.4234 7.41936L15.7438 6.7742L15.5173 6.23656V5.26882L16.3102 4.62366H17.2163L17.7826 4.94624L18.1224 5.48387L18.0091 6.02151L17.4428 5.91398L16.8765 5.16129H16.3102V6.12904L16.65 6.66667L17.2163 6.98925H18.2357L18.802 6.66667L19.1418 5.69893L18.9153 4.62366L18.3489 3.9785L17.5561 3.54839L16.4234 3.44086L15.5173 3.76344L14.951 4.30108L14.4979 5.05377V6.66667L15.0642 7.63441L15.8571 8.27957L16.5367 8.60215L16.9898 8.70968H18.6887L19.8214 8.17205L20.501 7.63441H20.8408V8.17205L19.9347 8.92473L19.3683 9.24731L18.0091 9.46237L16.4234 9.35484L15.2908 8.81721L14.7244 8.27957L13.9316 7.31183L13.5918 6.12904L13.7051 4.94624L14.2714 3.9785L15.2908 3.11828L15.9704 2.90323Z" fill="#F0877C"/>
</svg>
