<svg width="144" height="30" viewBox="0 0 144 30" fill="none" xmlns="http://www.w3.org/2000/svg">
<path d="M58.8621 8.90626H69.7625L72.9115 9.84376H73.396L73.6382 8.90626H81.1474L83.3275 9.37501L85.7498 10.7813L87.2032 12.8906L87.6876 14.7656V29.7656H82.6008L82.3586 15.2344L82.1163 14.2969L75.8183 14.0625L76.0606 14.5313V29.7656L72.4271 30L70.9737 29.7656L70.7315 15.9375L70.4892 14.0625H61.7689L62.0112 29.5312L61.0422 30H57.4088L56.6821 29.7656V10.7813L57.651 9.37501L58.8621 8.90626Z" fill="#F0877C"/>
<path d="M138.072 0H142.916L143.159 0.234375V23.9062L142.674 25.7812L141.705 27.1875L140.494 28.3594L139.525 29.0625L136.618 29.7656L129.594 30L124.991 29.7656L122.327 28.8281L120.873 27.6562L119.904 26.25L119.178 24.1406V14.7656L120.147 12.1875L121.6 10.5469L124.022 9.14062L125.476 8.90625H135.649L135.892 9.14062V13.8281L132.985 14.0625H124.749L124.507 21.7969L124.749 24.1406L125.234 24.6094H136.861L137.587 23.9062L137.83 22.9687L138.072 0Z" fill="#F0877C"/>
<path d="M96.408 8.90626H108.277L110.7 9.37501L112.637 10.5469L114.333 12.6563L114.818 14.0625L115.06 15.9375V22.9688L114.575 25.3125L113.606 27.1875L111.911 28.8281L108.762 29.7656L103.675 30H100.768L96.8925 29.7656L94.7124 29.0625L92.5323 27.1875L91.5634 25.3125L91.3212 24.6094V21.3281L92.2901 18.9844L93.7435 17.3438L96.1658 16.1719L98.5881 15.9375H107.308L107.793 16.1719V20.3906L107.308 20.8594L96.6503 21.0938L96.1658 23.2031L96.8925 24.6094L97.6192 24.8438H108.762L109.488 24.375L109.731 23.6719V15.7031L109.246 14.0625L107.308 13.8281H96.8925L96.408 13.5938V8.90626Z" fill="#F0877C"/>
<path d="M34.8813 8.90626H45.2972L47.7195 9.37501L49.1729 10.0781L50.3841 11.0156L51.8375 13.3594L52.0797 14.2969V24.6094L51.353 26.4844L49.4152 28.5938L47.2351 29.5312L45.7817 29.7656L38.5148 30L34.3968 29.7656L31.9745 29.0625L30.0367 27.6563L28.8255 26.0156L28.3411 24.375V13.8281L29.5522 11.7188L31.7323 9.84376L33.4279 9.14063L34.8813 8.90626ZM34.1546 14.0625L33.6701 14.2969L33.4279 15L33.1857 21.7969L33.6701 24.1406L34.3968 24.8438H46.0239L46.7506 24.375L46.9929 23.4375V15.4688L46.5084 14.0625H34.1546Z" fill="#F0877C"/>
<path d="M2.42231 8.90626H15.2606L18.4096 9.60938L20.8319 11.0156L22.7697 13.125L23.7386 15.4688L23.9809 16.875L24.2231 27.4219V29.7656L23.7386 30H19.3785L18.894 29.7656L18.6518 17.1094L17.6829 15.2344L16.2295 14.2969L5.32908 14.0625V29.7656L4.84462 30H0.484462L0 29.7656V10.7813L0.968924 9.37501L2.42231 8.90626Z" fill="#F0877C"/>
</svg>
