<svg width="16" height="16" viewBox="0 0 16 16" fill="none" xmlns="http://www.w3.org/2000/svg">
<path d="M0.824742 0H15.1753L15.5052 0.129032L15.7251 0.387097L15.8351 0.774194L15.89 4.90323L16 9.72043V11.2258L15.8351 11.4839L15.3952 11.871L14.4605 12.4301L13.4708 12.9892L12.4811 13.5914L11.7113 14.0215L10.5567 14.7097L9.51203 15.3118L8.57732 15.828L8.24742 15.957L7.91753 16L7.3677 15.828L6.65292 15.4409L4.89347 14.4086L3.8488 13.8065L2.69416 13.1183L1.64948 12.5161L0.714777 11.957L0.219931 11.6129L0 11.3118V7.78495L0.0549828 1.24731L0.164948 0.55914L0.329897 0.215054L0.604811 0.0430108L0.824742 0ZM4.45361 0.344086L2.2543 0.387097L1.31959 0.516129L0.879725 0.817204L0.714777 1.11828L0.604811 1.80645L0.549828 7.05376L2.36426 7.31183L2.96907 7.44086H3.13402V4.60215L2.91409 4.64516L2.69416 4.86022L2.2543 5.16129L1.75945 5.54839L1.5945 5.63441H1.37457L1.31959 5.33333L3.13402 3.91398V3.09677L2.36426 3.6129L2.08935 3.82796L1.5945 4.17204L1.37457 4.21505L1.31959 4.12903V3.87097L3.13402 2.45161V1.63441L2.91409 1.72043V1.80645L2.69416 1.89247L1.86942 2.53763L1.42955 2.75269L1.2646 2.70968L1.31959 2.4086L3.189 0.946237H3.57388L3.90378 1.11828L4.45361 1.50538L5.16838 2.06452L5.49828 2.45161L5.4433 2.62366L5.27835 2.66667L4.94845 2.49462L4.28866 2.02151L3.79381 1.63441H3.68385V2.36559L3.8488 2.58065L4.78351 3.26882L5.49828 3.82796V4.12903L5.33333 4.17204L4.89347 3.91398L4.17869 3.39785L3.79381 3.09677H3.68385V3.87097L5.60825 5.37634L5.55326 5.54839L5.4433 5.63441L5.16838 5.5914L4.50859 5.11828L3.79381 4.55914H3.73883L3.68385 5.07527V7.48387L3.79381 7.69892L4.94845 8.17204L5.88316 8.68817L6.54296 9.16129L7.0378 9.54839L7.14777 9.50538V7.52688L6.87285 7.6129L6.48797 7.91398L6.21306 8.04301H6.04811L5.99313 7.74194L6.04811 7.6129L6.26804 7.52688L7.20275 6.7957V6.49462L6.92784 6.58065L6.26804 7.01075H6.04811L5.99313 6.75269L6.37801 6.4086L7.20275 5.76344L7.47766 5.72043L7.91753 5.97849L8.74227 6.62366L8.85223 6.75269V7.01075L8.52234 6.96774L7.97251 6.58065L7.64261 6.36559V6.75269L8.6323 7.52688L8.85223 7.74194V8.04301L8.52234 8L7.86254 7.52688L7.64261 7.44086V9.29032L7.91753 9.2043L8.46735 8.90323L8.79725 8.51613L9.2921 7.87097L9.95189 6.96774L10.3918 6.4086L11.1065 5.46237L11.7113 4.64516L11.6014 4.43011L11.1065 3.82796L11.1615 3.6129L11.2715 3.48387H11.3814L11.9313 4.17204L12.1512 4.08602L12.5911 3.52688H12.756L12.866 3.65591L12.811 3.91398L12.3711 4.47312L12.3162 4.64516L12.646 5.11828L13.5258 6.23656L14.2406 7.1828L14.6804 7.74194L15.2302 8.43011L15.3952 8.51613V3.69892L15.3402 1.93548L15.2852 1.24731L15.1203 0.860215L14.9003 0.645161L14.4605 0.473118L13.5808 0.387097L12.2062 0.344086H4.45361ZM11.9313 5.03226L11.2715 5.97849L10.3918 7.13978L9.51203 8.34409L9.34708 8.55914V8.64516L9.78694 8.60215L10.5017 8.43011L10.7216 8.21505L11.4914 7.1828L11.9313 6.62366V6.53763L12.0962 6.62366L12.4261 7.09677L13.0859 7.91398L13.4708 8.34409L13.9107 8.47312L14.3505 8.55914H14.6254L14.5155 8.30108L13.6357 7.09677L12.921 6.15054L12.1512 5.16129L12.0412 5.03226H11.9313ZM11.9863 7.09677L11.7663 7.31183L11.2715 8.04301L11.1065 8.25806V8.34409L12.921 8.30108L12.811 8.08602L12.0962 7.13978L11.9863 7.09677ZM0.604811 7.52688L0.549828 7.6129V8.47312L0.989691 8.60215L2.08935 8.90323L3.46392 9.41935L4.34364 9.84946L5.22337 10.4086L5.60825 10.6237L6.59794 9.84946L6.04811 9.41935L5.60825 9.11828L4.89347 8.68817L4.06873 8.30108L3.02406 7.95699L1.86942 7.69892L0.604811 7.52688ZM11.9863 8.77419L10.7766 8.86022L9.62199 9.07527L8.57732 9.41935L7.69759 9.80645L6.81787 10.3226L6.10309 10.8387L5.60825 11.3118L5.05842 11.957L4.61856 12.6022L4.17869 13.4194L4.28866 13.5914L5.16838 14.1075L5.27835 14.0215L5.4433 13.5054L5.7732 12.8602L6.26804 12.172L6.87285 11.5699L7.31271 11.1828L8.08247 10.7097L9.01718 10.2796L9.95189 9.97849L10.8316 9.80645L11.5464 9.72043H12.866L13.8007 9.84946L14.7354 10.0645L15.4502 10.2796V9.37634L15.2852 9.24731L14.2955 8.98925L13.1409 8.8172L12.5361 8.77419H11.9863ZM0.494845 8.90323V10.1075L0.934708 10.2796L2.08935 10.7097L2.74914 11.0538L3.35395 11.4409L3.90378 11.828L4.28866 12.086L4.61856 11.6989L5.16838 11.0108L4.89347 10.7527L4.12371 10.2796L3.29897 9.84946L2.36426 9.46237L1.20962 9.11828L0.494845 8.90323ZM11.4914 10.1075L10.5567 10.2366L9.67698 10.4516L8.79725 10.7957L8.02749 11.2258L7.47766 11.6129L6.98282 12.043L6.48797 12.6022L5.99313 13.4194L5.71821 14.0645L5.66323 14.3656L6.15808 14.6667L6.7079 14.9677L6.87285 15.0108L7.09278 14.1505L7.42268 13.4624L7.91753 12.8172L8.52234 12.2581L9.2921 11.7849L10.1718 11.4409L11.0515 11.2258L11.9863 11.1398L12.9759 11.1828L14.0206 11.3978L14.6804 11.6129L14.9003 11.6559L15.1753 11.4409L15.3952 11.1828L15.4502 10.7957L15.0103 10.5806L14.2955 10.3656L13.1959 10.1505L12.756 10.1075H11.4914ZM0.494845 10.5806V11.0108L0.659794 11.3548L1.15464 11.7419L2.03436 12.2581L3.07904 12.8602L3.57388 13.1613H3.73883L3.95876 12.7312L3.90378 12.5161L3.5189 12.129L2.80412 11.6129L2.03436 11.1828L0.769759 10.6667L0.494845 10.5806ZM11.4914 11.5699L10.4467 11.7849L9.67698 12.086L8.9622 12.5161L8.52234 12.8602L7.97251 13.5054L7.64261 14.1075L7.42268 14.8387V15.2258L7.58763 15.3548L7.69759 15.3978H8.30241L8.85223 15.1828L9.07217 14.9677L9.23711 14.3656L9.51203 13.8495L9.95189 13.3763L10.3918 13.0753L11.0515 12.8172L11.7663 12.6882H13.1409L14.0756 12.172L14.2955 12L14.2406 11.871L13.0859 11.6129L12.701 11.5699H11.4914ZM12.1512 13.0323L11.4914 13.1183L10.9416 13.2903L10.3918 13.6344L10.0069 14.0645L9.73196 14.5376V14.6237L10.0069 14.5806L10.6667 14.1505L11.4364 13.7204L12.4261 13.1613V13.0323H12.1512Z" fill="#F0877C"/>
<path d="M7.45283 1.16129H8.08712L8.61569 1.29032L9.03855 1.5914L9.24998 1.89247L9.30283 2.06451V2.4086L9.19712 2.70968L8.98569 2.92473L8.72141 3.05376L8.50998 3.09677H8.03426L7.66426 2.96774L7.34712 2.70968L7.24141 2.49462V2.10753L7.61141 1.84946H8.03426L8.29855 1.97849L8.45712 2.19355L8.40426 2.4086L8.13998 2.36559L7.87569 2.06451H7.61141V2.45161L7.76998 2.66667L8.03426 2.7957H8.50998L8.77426 2.66667L8.93283 2.27957L8.82712 1.84946L8.56283 1.5914L8.19283 1.41935L7.66426 1.37634L7.24141 1.50538L6.97712 1.72043L6.76569 2.0215V2.66667L7.02998 3.05376L7.39998 3.31183L7.71712 3.44086L7.92855 3.48387H8.72141L9.24998 3.26882L9.56712 3.05376H9.72569V3.26882L9.30283 3.56989L9.03855 3.69892L8.40426 3.78494L7.66426 3.74193L7.13569 3.52688L6.87141 3.31183L6.50141 2.92473L6.34283 2.45161L6.39569 1.97849L6.65998 1.5914L7.13569 1.24731L7.45283 1.16129Z" fill="#F0877C"/>
</svg>
